<svg class="bg-noise-pattern" id="sw-js-blob-svg" viewBox="0 0 100 100" xmlns="http://www.w3.org/2000/svg">
  <defs>
    <linearGradient id="sw-gradient" x1="0" x2="1" y1="1" y2="0">
      <stop id="stop1" stop-color="rgba(94, 19, 128, 1)" offset="0%"></stop>
      <stop id="stop2" stop-color="rgba(94, 19, 128, 1)" offset="100%"></stop>
    </linearGradient>
  </defs>
  <path fill="url(#sw-gradient)" d="M20,-24.1C27.3,-17.8,35.5,-12.7,38,-5.7C40.5,1.4,37.3,10.5,32.6,19C27.9,27.4,21.8,35.2,14.4,36.7C7,38.1,-1.7,33.3,-9.9,29.4C-18.1,25.4,-25.7,22.4,-30.5,16.5C-35.2,10.6,-36.9,1.9,-36.3,-7.2C-35.7,-16.3,-32.7,-25.9,-26.2,-32.3C-19.8,-38.7,-9.9,-42.1,-1.8,-40C6.4,-37.9,12.8,-30.4,20,-24.1Z" width="100%" height="100%" transform="translate(50 50)" stroke-width="0" style="transition: all 0.3s ease 0s;" stroke="url(#sw-gradient)"></path>
</svg>
